:FULLY-SPECIFIED
:FORCE-ALL-JOINTS-BE-3DOF
:DEGREES
404
root 9.68128 16.8798 20.4359 6.53859 -1.60772 -7.68566
lfemur -43.1052 -3.48558 -8.68845
ltibia 21.0575 0 0
lfoot -16.0751 13.5279 0
ltoes -12.4951 0 0
rfemur 17.565 5.90255 33.2752
rtibia -3.18055e-015 0 0
rfoot -7.76597 6.94901 0
rtoes -10.2721 0 0
lowerback -8.19425 3.26454 3.35722
upperback 0.264259 3.82586 4.12036
thorax 4.80855 1.9256 2.87989
lowerneck -19.3153 -6.12976 -13.396
upperneck 21.2157 -7.82942 13.0732
head 11.1486 -3.15556 5.82563
lclavicle 1.40392e-014 -2.70347e-014 0
lhumerus -53.4635 -9.27159 96.3703
lradius 27.1029 0 0
lwrist 8.23398 0 0
lhand -10.3618 -26.2649 0
lfingers 7.12502 0 0
lthumb 15.6352 3.1233 0
rclavicle 1.40392e-014 -2.70347e-014 0
rhumerus -27.0111 15.0684 -84.832
rradius 39.4923 0 0
rwrist -17.8837 0 0
rhand -30.2602 -21.0399 0
rfingers 7.12502 0 0
rthumb -3.56874 -50.9897 0
405
root 9.70637 16.8882 20.5937 6.58732 -1.63132 -7.45035
lfemur -42.8334 -3.24754 -9.20188
ltibia 21.4127 0 0
lfoot -15.732 13.3234 0
ltoes -11.9358 0 0
rfemur 16.9402 5.71068 32.8441
rtibia 1.64342 0 0
rfoot -6.93077 6.68551 0
rtoes -10.4806 0 0
lowerback -8.10646 3.2411 3.19818
upperback 0.127869 3.81373 4.01813
thorax 4.61576 1.92068 2.85158
lowerneck -19.2446 -6.1103 -13.4398
upperneck 21.2583 -7.80553 13.0853
head 11.149 -3.14979 5.84411
lclavicle 1.41923e-014 -2.59895e-014 0
lhumerus -53.1319 -9.06624 96.1153
lradius 26.8498 0 0
lwrist 7.78818 0 0
lhand -10.3681 -26.1681 0
lfingers 7.12502 0 0
lthumb 15.6291 3.22054 0
rclavicle 1.41923e-014 -2.59895e-014 0
rhumerus -27.5776 14.8832 -85.0063
rradius 39.1573 0 0
rwrist -17.7261 0 0
rhand -30.1522 -21.2297 0
rfingers 7.12502 0 0
rthumb -3.46445 -51.1805 0
406
root 9.73146 16.8967 20.7515 6.63605 -1.65492 -7.21504
lfemur -42.5616 -3.0095 -9.71532
ltibia 21.7678 0 0
lfoot -15.3889 13.1188 0
ltoes -11.3765 0 0
rfemur 16.3155 5.5188 32.413
rtibia 3.28683 0 0
rfoot -6.09557 6.422 0
rtoes -10.6891 0 0
lowerback -8.01868 3.21767 3.03915
upperback -0.00852029 3.8016 3.91589
thorax 4.42296 1.91576 2.82327
lowerneck -19.1738 -6.09085 -13.4836
upperneck 21.3008 -7.78163 13.0973
head 11.1494 -3.14402 5.86259
lclavicle 1.43454e-014 -2.49443e-014 0
lhumerus -52.8003 -8.86089 95.8604
lradius 26.5966 0 0
lwrist 7.34238 0 0
lhand -10.3744 -26.0714 0
lfingers 7.12502 0 0
lthumb 15.6231 3.31779 0
rclavicle 1.43454e-014 -2.49443e-014 0
rhumerus -28.1441 14.6981 -85.1805
rradius 38.8224 0 0
rwrist -17.5686 0 0
rhand -30.0442 -21.4196 0
rfingers 7.12502 0 0
rthumb -3.36017 -51.3713 0
407
root 9.75654 16.9051 20.9093 6.68478 -1.67851 -6.97972
lfemur -42.2898 -2.77145 -10.2288
ltibia 22.123 0 0
lfoot -15.0459 12.9143 0
ltoes -10.8172 0 0
rfemur 15.6907 5.32693 31.9818
rtibia 4.93025 0 0
rfoot -5.26036 6.1585 0
rtoes -10.8975 0 0
lowerback -7.93089 3.19423 2.88011
upperback -0.14491 3.78947 3.81366
thorax 4.23017 1.91084 2.79496
lowerneck -19.1031 -6.07139 -13.5274
upperneck 21.3434 -7.75774 13.1094
head 11.1498 -3.13825 5.88107
lclavicle 1.44985e-014 -2.3899e-014 0
lhumerus -52.4688 -8.65554 95.6054
lradius 26.3435 0 0
lwrist 6.89659 0 0
lhand -10.3807 -25.9746 0
lfingers 7.12502 0 0
lthumb 15.617 3.41503 0
rclavicle 1.44985e-014 -2.3899e-014 0
rhumerus -28.7105 14.5129 -85.3548
rradius 38.4874 0 0
rwrist -17.411 0 0
rhand -29.9363 -21.6094 0
rfingers 7.12502 0 0
rthumb -3.25588 -51.5621 0
